<mxfile host="app.diagrams.net" modified="2024-06-14T13:10:23.874Z" agent="Mozilla/5.0 (Macintosh; Intel Mac OS X 10_15_7) AppleWebKit/537.36 (KHTML, like Gecko) Chrome/125.0.0.0 Safari/537.36" etag="WTpnTA2CMODOYM9rrReW" version="24.5.4" type="github">
  <diagram name="Page-1" id="74e2e168-ea6b-b213-b513-2b3c1d86103e">
    <mxGraphModel dx="1434" dy="761" grid="1" gridSize="10" guides="1" tooltips="1" connect="1" arrows="1" fold="1" page="1" pageScale="1" pageWidth="1100" pageHeight="850" background="none" math="0" shadow="0">
      <root>
        <mxCell id="0" />
        <mxCell id="1" parent="0" />
        <mxCell id="77e6c97f196da883-1" value="&lt;font style=&quot;font-size: 16px;&quot;&gt;生产管理&lt;/font&gt;" style="swimlane;html=1;childLayout=stackLayout;startSize=20;rounded=0;shadow=0;labelBackgroundColor=none;strokeWidth=1;fontFamily=Verdana;fontSize=8;align=center;" parent="1" vertex="1">
          <mxGeometry x="70" y="30" width="960" height="770" as="geometry" />
        </mxCell>
        <mxCell id="77e6c97f196da883-2" value="MRP运算" style="swimlane;html=1;startSize=20;" parent="77e6c97f196da883-1" vertex="1">
          <mxGeometry y="20" width="160" height="750" as="geometry" />
        </mxCell>
        <mxCell id="77e6c97f196da883-3" value="生产计划" style="swimlane;html=1;startSize=20;" parent="77e6c97f196da883-1" vertex="1">
          <mxGeometry x="160" y="20" width="160" height="750" as="geometry" />
        </mxCell>
        <mxCell id="77e6c97f196da883-4" value="生产工单" style="swimlane;html=1;startSize=20;" parent="77e6c97f196da883-1" vertex="1">
          <mxGeometry x="320" y="20" width="160" height="750" as="geometry" />
        </mxCell>
        <mxCell id="77e6c97f196da883-5" value="工序任务" style="swimlane;html=1;startSize=20;" parent="77e6c97f196da883-1" vertex="1">
          <mxGeometry x="480" y="20" width="160" height="750" as="geometry" />
        </mxCell>
        <mxCell id="77e6c97f196da883-6" value="质检任务" style="swimlane;html=1;startSize=20;" parent="77e6c97f196da883-1" vertex="1">
          <mxGeometry x="640" y="20" width="160" height="750" as="geometry" />
        </mxCell>
        <mxCell id="77e6c97f196da883-7" value="生产领料单" style="swimlane;html=1;startSize=20;" parent="77e6c97f196da883-1" vertex="1">
          <mxGeometry x="800" y="20" width="160" height="750" as="geometry" />
        </mxCell>
      </root>
    </mxGraphModel>
  </diagram>
</mxfile>
